<svg width="20" height="21" viewBox="0 0 20 21" fill="none" xmlns="http://www.w3.org/2000/svg">
<g clip-path="url(#clip0_6966_26431)">
<path d="M19.8678 10.4684L15.3225 5.92305C15.1592 5.73239 14.8722 5.71016 14.6816 5.87348C14.4909 6.03676 14.4687 6.32371 14.632 6.51437C14.6472 6.53214 14.6638 6.54874 14.6816 6.56394L18.4497 10.3366H0.454523C0.203512 10.3366 0 10.5401 0 10.7912C0 11.0422 0.203512 11.2457 0.454523 11.2457H18.4497L14.6816 15.0138C14.4909 15.1771 14.4687 15.464 14.632 15.6547C14.7953 15.8453 15.0822 15.8676 15.2729 15.7042C15.2907 15.689 15.3073 15.6724 15.3225 15.6547L19.8679 11.1093C20.0441 10.9321 20.0441 10.6457 19.8678 10.4684Z" fill="url(#paint0_linear_6966_26431)"/>
</g>
<defs>
<linearGradient id="paint0_linear_6966_26431" x1="0" y1="10.7889" x2="20" y2="10.7889" gradientUnits="userSpaceOnUse">
<stop stop-color="#B0FE6A"/>
<stop offset="1" stop-color="#7BFEDE"/>
</linearGradient>
<clipPath id="clip0_6966_26431">
<rect width="20" height="20" fill="white" transform="translate(0 0.789551)"/>
</clipPath>
</defs>
</svg>
