<svg width="157" height="400" viewBox="0 0 157 400" fill="none" xmlns="http://www.w3.org/2000/svg">
<path d="M23.4989 13C116.999 78 214.449 98.1258 89.4989 191.5C-49.0011 295 9.49899 330.5 145.499 390" stroke="url(#paint0_linear_7021_23100)" stroke-width="1.5"/>
<rect width="24" height="24" rx="12" fill="url(#paint1_linear_7021_23100)"/>
<path d="M8.732 17V15.964H11.462V8.096H11.364L8.9 10.392L8.214 9.65L10.804 7.228H12.638V15.964H15.158V17H8.732Z" fill="black"/>
<rect x="133" y="94.2109" width="24" height="24" rx="12" fill="url(#paint2_linear_7021_23100)"/>
<path d="M147.962 111.211H141.55V110.007L144.742 107.067C145.199 106.647 145.582 106.204 145.89 105.737C146.198 105.261 146.352 104.785 146.352 104.309V104.141C146.352 103.6 146.203 103.161 145.904 102.825C145.605 102.489 145.153 102.321 144.546 102.321C144.247 102.321 143.986 102.363 143.762 102.447C143.538 102.531 143.342 102.648 143.174 102.797C143.015 102.946 142.88 103.124 142.768 103.329C142.665 103.525 142.581 103.74 142.516 103.973L141.466 103.567C141.559 103.278 141.685 102.998 141.844 102.727C142.012 102.447 142.217 102.2 142.46 101.985C142.712 101.77 143.011 101.598 143.356 101.467C143.711 101.336 144.126 101.271 144.602 101.271C145.078 101.271 145.503 101.341 145.876 101.481C146.249 101.621 146.562 101.817 146.814 102.069C147.066 102.321 147.257 102.62 147.388 102.965C147.528 103.31 147.598 103.693 147.598 104.113C147.598 104.496 147.542 104.85 147.43 105.177C147.327 105.504 147.183 105.816 146.996 106.115C146.809 106.404 146.581 106.689 146.31 106.969C146.049 107.249 145.764 107.529 145.456 107.809L142.824 110.175H147.962V111.211Z" fill="black"/>
<rect y="255.211" width="24" height="24" rx="12" fill="url(#paint3_linear_7021_23100)"/>
<path d="M11.154 266.583C11.8167 266.583 12.3113 266.434 12.638 266.135C12.974 265.827 13.142 265.435 13.142 264.959V264.861C13.142 264.348 12.9787 263.965 12.652 263.713C12.3347 263.452 11.9147 263.321 11.392 263.321C10.888 263.321 10.4773 263.433 10.16 263.657C9.84267 263.872 9.58133 264.166 9.376 264.539L8.508 263.867C8.62933 263.671 8.774 263.48 8.942 263.293C9.11933 263.097 9.32467 262.924 9.558 262.775C9.79133 262.626 10.062 262.504 10.37 262.411C10.678 262.318 11.028 262.271 11.42 262.271C11.8307 262.271 12.218 262.327 12.582 262.439C12.946 262.542 13.2587 262.7 13.52 262.915C13.7907 263.12 14.0007 263.377 14.15 263.685C14.3087 263.993 14.388 264.343 14.388 264.735C14.388 265.052 14.3367 265.337 14.234 265.589C14.1407 265.841 14.01 266.06 13.842 266.247C13.674 266.434 13.4733 266.592 13.24 266.723C13.016 266.854 12.7733 266.952 12.512 267.017V267.073C12.7733 267.129 13.0253 267.222 13.268 267.353C13.52 267.474 13.7393 267.638 13.926 267.843C14.122 268.039 14.276 268.282 14.388 268.571C14.5093 268.851 14.57 269.173 14.57 269.537C14.57 269.957 14.4907 270.344 14.332 270.699C14.1733 271.044 13.9493 271.343 13.66 271.595C13.3707 271.838 13.0207 272.029 12.61 272.169C12.1993 272.309 11.7467 272.379 11.252 272.379C10.832 272.379 10.4587 272.332 10.132 272.239C9.80533 272.146 9.516 272.02 9.264 271.861C9.012 271.702 8.788 271.525 8.592 271.329C8.40533 271.133 8.23733 270.928 8.088 270.713L8.97 270.041C9.09133 270.237 9.222 270.414 9.362 270.573C9.51133 270.732 9.67467 270.867 9.852 270.979C10.0293 271.091 10.23 271.18 10.454 271.245C10.678 271.301 10.9393 271.329 11.238 271.329C11.9287 271.329 12.4513 271.175 12.806 270.867C13.1607 270.55 13.338 270.102 13.338 269.523V269.411C13.338 268.832 13.1607 268.389 12.806 268.081C12.4513 267.764 11.9287 267.605 11.238 267.605H10.09V266.583H11.154Z" fill="black"/>
<rect x="133" y="375.211" width="24" height="24" rx="12" fill="url(#paint4_linear_7021_23100)"/>
<path d="M145.75 392.211V390.293H141.032V389.257L145.12 382.439H146.87V389.313H148.284V390.293H146.87V392.211H145.75ZM142.138 389.313H145.75V383.349H145.68L142.138 389.313Z" fill="black"/>
<defs>
<linearGradient id="paint0_linear_7021_23100" x1="10.2109" y1="201.5" x2="148.716" y2="201.5" gradientUnits="userSpaceOnUse">
<stop stop-color="#B0FE6A"/>
<stop offset="1" stop-color="#7BFEDE"/>
</linearGradient>
<linearGradient id="paint1_linear_7021_23100" x1="0" y1="12" x2="24" y2="12" gradientUnits="userSpaceOnUse">
<stop stop-color="#B0FE6A"/>
<stop offset="1" stop-color="#7BFEDE"/>
</linearGradient>
<linearGradient id="paint2_linear_7021_23100" x1="133" y1="106.211" x2="157" y2="106.211" gradientUnits="userSpaceOnUse">
<stop stop-color="#B0FE6A"/>
<stop offset="1" stop-color="#7BFEDE"/>
</linearGradient>
<linearGradient id="paint3_linear_7021_23100" x1="0" y1="267.211" x2="24" y2="267.211" gradientUnits="userSpaceOnUse">
<stop stop-color="#B0FE6A"/>
<stop offset="1" stop-color="#7BFEDE"/>
</linearGradient>
<linearGradient id="paint4_linear_7021_23100" x1="133" y1="387.211" x2="157" y2="387.211" gradientUnits="userSpaceOnUse">
<stop stop-color="#B0FE6A"/>
<stop offset="1" stop-color="#7BFEDE"/>
</linearGradient>
</defs>
</svg>
